<?xml version="1.0" encoding="utf-8"?>
<!-- Generator: Adobe Illustrator 22.0.0, SVG Export Plug-In . SVG Version: 6.00 Build 0)  -->
<svg version="1.1" id="Layer_1" xmlns="http://www.w3.org/2000/svg" xmlns:xlink="http://www.w3.org/1999/xlink" x="0px" y="0px"
	 viewBox="0 0 885 303" style="enable-background:new 0 0 885 303;" xml:space="preserve">
<style type="text/css">
	.st0{fill:#70D477;}
	.st1{fill:#3F444A;}
</style>
<g>
	<g id="XMLID_6_">
		<g>
			<path class="st0" d="M142.7,153.8c0.2,0.7,0.7,1.2,1.4,1.5c1.9,0.7,6,2.2,11,2.9c5.1,0.7,11,0.8,14.5,0.8c1.6,0,2.8-1.6,2.3-3.1
				c-5.1-16.4-13.3-33-24.6-49.8c-11.8-17.5-21.6-24.5-28.2-29.5c-1.1-0.8,0.1-2.4,1.2-1.7c37.2,24.7,46.8,48.8,61.4,83.2
				c0.3,0.8,1.1,1.4,2,1.5c3.3,0.3,10.8,0.8,14.8,0.6c4.4-0.2,11-1,14.4-1.6c1.5-0.2,2.3-1.9,1.6-3.2
				c-21.9-38.9-36.8-51.8-61.3-71.7c-0.9-0.7,0.1-2.1,1-1.5c39.1,23,58.2,56.3,68.8,73.2c0.6,0.9,1.6,1.4,2.6,1.2
				c4.7-0.9,19.4-3.3,21.3-4c1-0.3,1.4-1.5,0.8-2.3C202.2,76.8,117.8,56.2,86.8,51c-3.1-0.5-4.9,3.4-2.6,5.4
				C118.8,86.4,139.8,145.3,142.7,153.8z M244.7,158.5c-43.3,14.6-104.9,3-113.7,1.2c-0.7-0.1-1.4,0-2,0.5c-1.6,1.2-4.9,4.1-8.1,8.1
				c-3.2,4.1-6.3,9-8.1,12.1c-0.8,1.4-0.1,3.2,1.5,3.6c16.7,3.9,35.3,5.2,55.5,3.9c21.1-1.3,32.1-6.3,39.7-9.4
				c1.2-0.5,2.1,1.3,0.8,1.9c-40.1,19.6-65.8,15.8-102.9,10.9c-0.9-0.1-1.8,0.3-2.3,1c-1.9,2.7-6.1,8.9-8,12.5
				c-2,3.9-4.7,10-5.9,13.2c-0.6,1.4,0.5,3,2,3c44.6,0.8,63.3-5.6,92.9-16.7c1.1-0.4,1.8,1.1,0.8,1.6c-39.6,22.1-78,21.8-98,22.4
				c-1.1,0-2,0.6-2.4,1.6c-1.6,4.5-6.9,18.4-7.3,20.4c-0.2,1,0.6,1.9,1.6,1.9c86.5-2.2,146.9-64.6,167-88.7
				C250.1,161,247.7,157.4,244.7,158.5z M131.2,145.5c-0.3-2-1-6.3-2.8-11.1c-1.9-4.8-4.6-10-6.3-13.1c-0.8-1.4-2.7-1.7-3.9-0.5
				c-11.9,12.4-22.4,27.7-31.6,45.7c-9.6,18.8-10.9,30.8-12.2,38.9c-0.2,1.3-2.2,1.1-2.1-0.2c3.5-44.5,19.9-64.6,43-94
				c0.6-0.7,0.7-1.7,0.3-2.5c-1.4-3-4.5-9.8-6.7-13.2c-2.4-3.8-6.2-9.1-8.3-11.8c-0.9-1.2-2.8-1.1-3.6,0.2
				c-23.4,38-27.5,57.3-32.9,88.4c-0.2,1.1-1.8,0.9-1.8-0.2c1.1-45.3,21-78.2,30.6-95.7c0.5-0.9,0.5-2.1-0.2-2.9
				c-3.1-3.7-12.3-15.3-13.9-16.6c-0.8-0.7-2-0.5-2.5,0.4c-42.1,75.5-19.2,159.2-8.7,188.8c1,3,5.3,2.7,6-0.4
				c9.5-44.7,50.9-91.7,56.9-98.3C131.1,146.9,131.3,146.2,131.2,145.5z"/>
		</g>
	</g>
	<g id="XMLID_114_">
		<path id="XMLID_103_" class="st1" d="M367.9,72.6h-8.1c-1.7,0-3,1.3-3,3V130c-10-10.9-24-17.3-38.9-17.3c-29.2,0-53,24.1-53,53.7
			c0,29.6,23.8,53.8,53,53.8c14.9,0,28.9-6.3,38.9-17.3v12.6c0,1.7,1.3,3,3,3h8.1c1.7,0,3-1.3,3-3V75.6
			C370.9,73.9,369.6,72.6,367.9,72.6L367.9,72.6z M317.9,206.1c-21.4,0-38.9-17.8-38.9-39.6c0-21.9,17.4-39.6,38.9-39.6
			c21.4,0,38.9,17.8,38.9,39.6C356.8,188.3,339.4,206.1,317.9,206.1L317.9,206.1z M623.1,112.7h-0.5c-13.8,0-25.5,5.4-30.4,14
			c-4.8,8.2-5.8,16.1-3.1,23.5c4.2,11.2,16.1,16.5,21,18.3c3.2,1.1,9.8,3.4,14.9,5.1c6.9,2.3,9.4,3.2,10.4,3.5l0,0
			c1.3,0.4,12.4,4.5,10.9,15.9c-0.9,6.9-9,14.2-22.4,14.2c-0.4,0-0.8,0-1.2,0c-18.2-0.7-27.1-9.2-28.7-10.9l-0.1-0.1
			c-0.6-0.6-1.4-0.9-2.1-0.9c-0.7,0-1.4,0.2-1.9,0.7l-6.2,5.2c-1.2,1-1.4,2.9-0.4,4.1c0,0,3.2,4,10.1,8c8.2,4.8,18.2,7.5,28.8,8
			c0,0,0.1,0,0.1,0h1.7c8.3,0,16.8-2.4,23.4-6.7c7.5-4.9,12.1-11.8,13.1-19.8c2.3-18.5-12.4-28.3-20.5-31
			c-0.8-0.3-19.2-6.6-25.1-8.6c-1.7-0.6-10.1-3.9-12.4-9.9c-1.2-3.1-0.5-7,2.1-11.5c2.3-4.1,9.9-6.9,18.3-6.9l0.3,0
			c11.1,0.1,22.2,5.7,22.7,5.9c0.4,0.2,0.9,0.3,1.4,0.3c1.1,0,2.1-0.6,2.7-1.6l3.8-7.2c0.8-1.4,0.2-3.2-1.2-4
			C652.2,120.2,638.3,112.8,623.1,112.7C623.1,112.7,623.1,112.7,623.1,112.7L623.1,112.7z M829,112.9L829,112.9
			c-3.4,0-19,0.7-31.4,13.5v-8c0-1.7-1.3-3-3-3h-8.1c-1.7,0-3,1.3-3,3v97c0,1.7,1.3,3,3,3h8.1c1.7,0,3-1.3,3-3v-57.5
			c0-0.4,0.3-6.7,5-14.9c8.7-15.2,23.4-16,26.2-16c0.2,0,0.4,0,0.4,0c0.1,0,0.2,0,0.2,0c0.7,0,1.4-0.3,2-0.7c0.6-0.5,1-1.3,1-2.1
			l0.4-8.1c0.1-1.6-1.2-3-2.8-3.1C830,112.9,829.7,112.9,829,112.9L829,112.9z M716.3,113v3V113c-21.5,0-39.9,14.6-40.1,14.7
			c-0.6,0.5-1,1.2-1.1,2c-0.1,0.8,0.1,1.6,0.6,2.2l5.1,6.3c0.5,0.7,1.3,1.1,2.2,1.1c0.1,0,0.1,0,0.2,0c0.7,0,1.4-0.3,2-0.7
			c0.5-0.4,15-11.6,31-11.6c6.7,0,12.8,2,18.1,6c7.1,5.4,7.8,16.6,7.7,23.9h-33.5c-0.6,0-1.2,0-1.9,0c-13.5,0-36.8,6-38.3,28.5l0,0
			c-0.2,1.7-0.7,12.5,7.2,22c6.3,7.5,15.9,11.8,28.7,12.8c0,0,0.1,0,0.1,0l0.2,0c1.4,0.1,2.8,0.1,4.2,0.1c12.5,0,24-4.4,33.3-12.7
			l0,7.7c0,1.7,1.3,3,3,3h8c0.8,0,1.6-0.3,2.1-0.9c0.6-0.6,0.9-1.3,0.9-2.1l0-30.6c0.1-0.7,0.2-1.3,0.2-1.9c0-0.4-0.1-0.7-0.2-1
			c0-10,0-18.4,0-18.7c0-0.3,0-0.6,0-1c0-0.5,0-1,0-1.5c0.2-9.2,0.6-28.2-13.2-38.7C734.9,116,726.1,113,716.3,113L716.3,113z
			 M682.4,186.4c0.4-6.1,3.9-10.3,10.5-12.9c5.9-2.3,12.4-2.5,14.3-2.5c0.5,0,0.8,0,0.9,0c0.1,0,0.1,0,0.2,0h33.6l0,2.6l0,9
			c-0.5,1.8-3.5,9.3-10.5,15.4c-6.3,5.4-13.9,8.2-22.6,8.2c-1.1,0-2.3,0-3.4-0.1c-8.8-0.7-15.2-3.3-18.9-7.7
			C682.3,193.5,682.3,187.6,682.4,186.4C682.4,186.4,682.4,186.4,682.4,186.4L682.4,186.4z M443.6,113.4
			c-27.5,0-50.3,23.4-50.8,52.3c0,0,0,0,0,0.1v1.1c0,29.4,22.8,53.4,50.8,53.4c15.7,0,30.7-6.2,40-16.6c1.1-1.2,1-3.1-0.2-4.2
			l-6-5.4c-0.6-0.5-1.3-0.8-2-0.8c-0.8,0-1.6,0.3-2.2,1c-6.8,7.4-17.9,11.8-29.6,11.8c-9.1,0-17.9-3.6-24.7-10.2
			c-6-5.8-10-13.6-11.4-22h84c1.7,0,3-1.3,3-3v-4C494.5,137.3,471.7,113.4,443.6,113.4L443.6,113.4z M407.5,159.7
			c3.1-18.3,18.4-32.2,36-32.2l0.1,0c9.2,0,17.9,3.6,24.7,10.2c6,5.8,10,13.6,11.4,22H407.5L407.5,159.7z M503.8,113.8
			c-0.4,0-0.8,0.1-1.2,0.2l-7.5,3.1c-0.7,0.3-1.3,0.9-1.6,1.6c-0.3,0.7-0.3,1.6,0,2.3L537,224.7c0.5,1.1,1.6,1.8,2.8,1.8
			c0,0,0,0,0,0c1.2,0,2.3-0.7,2.8-1.8l43.6-103.6c0.6-1.5-0.1-3.3-1.6-3.9l-7.5-3.2c-0.4-0.2-0.8-0.2-1.2-0.2
			c-0.4,0-0.8,0.1-1.1,0.2c-0.7,0.3-1.3,0.9-1.6,1.6l-33.4,79.2l-33.2-79.2C506.1,114.5,505,113.8,503.8,113.8L503.8,113.8z"/>
	</g>
</g>
</svg>
